<svg width="24" height="24" viewBox="0 0 24 24" fill="none" xmlns="http://www.w3.org/2000/svg">
<g id="lucide:instagram">
<g id="Group">
<path id="Vector" d="M16.5 3H7.5C5.01472 3 3 5.01472 3 7.5V16.5C3 18.9853 5.01472 21 7.5 21H16.5C18.9853 21 21 18.9853 21 16.5V7.5C21 5.01472 18.9853 3 16.5 3Z" stroke="#1A1717" stroke-width="2" stroke-linecap="round" stroke-linejoin="round"/>
<path id="Vector_2" d="M16.9502 7.0498H16.9592M15.6002 11.4328C15.7112 12.1818 15.5833 12.9468 15.2345 13.6189C14.8858 14.291 14.334 14.8361 13.6576 15.1765C12.9812 15.5169 12.2148 15.6354 11.4672 15.5151C10.7196 15.3948 10.0289 15.0419 9.49351 14.5064C8.95808 13.971 8.60511 13.2804 8.48481 12.5328C8.36451 11.7852 8.48301 11.0187 8.82345 10.3423C9.16388 9.66597 9.70892 9.11417 10.381 8.76542C11.0532 8.41667 11.8181 8.28873 12.5672 8.3998C13.3312 8.5131 14.0385 8.86912 14.5847 9.41528C15.1308 9.96144 15.4869 10.6688 15.6002 11.4328Z" stroke="#1A1717" stroke-width="2" stroke-linecap="round" stroke-linejoin="round"/>
</g>
</g>
</svg>
